<svg width="29" height="29" viewBox="0 0 29 29" fill="none" xmlns="http://www.w3.org/2000/svg">
<path fill-rule="evenodd" clip-rule="evenodd" d="M19.3334 10.875C19.3334 12.1569 18.8242 13.3863 17.9178 14.2927C17.0113 15.1991 15.782 15.7084 14.5001 15.7084C13.2182 15.7084 11.9888 15.1991 11.0824 14.2927C10.176 13.3863 9.66675 12.1569 9.66675 10.875C9.66675 9.59314 10.176 8.36376 11.0824 7.45734C11.9888 6.55091 13.2182 6.04169 14.5001 6.04169C15.782 6.04169 17.0113 6.55091 17.9178 7.45734C18.8242 8.36376 19.3334 9.59314 19.3334 10.875ZM16.9167 10.875C16.9167 11.516 16.6621 12.1306 16.2089 12.5839C15.7557 13.0371 15.141 13.2917 14.5001 13.2917C13.8591 13.2917 13.2445 13.0371 12.7912 12.5839C12.338 12.1306 12.0834 11.516 12.0834 10.875C12.0834 10.2341 12.338 9.61939 12.7912 9.16618C13.2445 8.71297 13.8591 8.45835 14.5001 8.45835C15.141 8.45835 15.7557 8.71297 16.2089 9.16618C16.6621 9.61939 16.9167 10.2341 16.9167 10.875Z" fill="currentColor"/>
<path fill-rule="evenodd" clip-rule="evenodd" d="M14.5 1.20834C7.15942 1.20834 1.20837 7.15939 1.20837 14.5C1.20837 21.8406 7.15942 27.7917 14.5 27.7917C21.8407 27.7917 27.7917 21.8406 27.7917 14.5C27.7917 7.15939 21.8407 1.20834 14.5 1.20834ZM3.62504 14.5C3.62504 17.0254 4.48658 19.3503 5.93054 21.1966C6.94461 19.8649 8.25284 18.7857 9.75302 18.0432C11.2532 17.3008 12.9047 16.9152 14.5786 16.9167C16.2308 16.9151 17.8615 17.2907 19.3466 18.0148C20.8316 18.7389 22.1318 19.7924 23.1481 21.0951C24.195 19.7219 24.9 18.1192 25.2045 16.4196C25.5091 14.7199 25.4046 12.9721 24.8996 11.3209C24.3945 9.66962 23.5036 8.16236 22.3004 6.92381C21.0972 5.68525 19.6164 4.75101 17.9805 4.19837C16.3446 3.64574 14.6006 3.49061 12.8928 3.74581C11.185 4.00101 9.56254 4.65921 8.15964 5.66595C6.75673 6.67269 5.61373 7.99902 4.82519 9.5352C4.03666 11.0714 3.62526 12.7733 3.62504 14.5ZM14.5 25.375C12.0036 25.3788 9.58245 24.5199 7.64637 22.9438C8.42566 21.8282 9.46291 20.9174 10.6699 20.2888C11.8768 19.6601 13.2177 19.3324 14.5786 19.3333C15.9224 19.3323 17.2472 19.6518 18.4427 20.2655C19.6383 20.8791 20.6702 21.7692 21.4528 22.8617C19.5017 24.4889 17.0407 25.3786 14.5 25.375Z" fill="currentColor"/>
</svg>
