<svg width="28" height="28" viewBox="0 0 28 28" fill="none" xmlns="http://www.w3.org/2000/svg">
<path d="M17.5 12.25C17.5 13.1833 16.6834 14 15.75 14C16.6834 14 17.5 14.8167 17.5 15.75V17.5C17.5 18.1188 17.2542 18.7123 16.8166 19.1499C16.379 19.5875 15.7855 19.8333 15.1667 19.8333H10.5V8.16668H15.1667C15.7855 8.16668 16.379 8.41251 16.8166 8.85009C17.2542 9.28768 17.5 9.88117 17.5 10.5V12.25ZM15.1667 17.5V15.1667H12.8334V17.5H15.1667ZM15.1667 12.8333V10.5H12.8334V12.8333H15.1667ZM14 2.33334C15.5321 2.33334 17.0492 2.63511 18.4647 3.22142C19.8801 3.80772 21.1663 4.66708 22.2496 5.75043C23.333 6.83378 24.1923 8.1199 24.7786 9.53537C25.3649 10.9508 25.6667 12.4679 25.6667 14C25.6667 17.0942 24.4375 20.0617 22.2496 22.2496C20.0617 24.4375 17.0942 25.6667 14 25.6667C12.468 25.6667 10.9509 25.3649 9.5354 24.7786C8.11994 24.1923 6.83381 23.3329 5.75046 22.2496C3.56254 20.0617 2.33337 17.0942 2.33337 14C2.33337 10.9058 3.56254 7.93836 5.75046 5.75043C7.93839 3.56251 10.9058 2.33334 14 2.33334ZM14 4.66668C11.5247 4.66668 9.15072 5.65001 7.40038 7.40035C5.65004 9.15069 4.66671 11.5247 4.66671 14C4.66671 16.4754 5.65004 18.8493 7.40038 20.5997C9.15072 22.35 11.5247 23.3333 14 23.3333C16.4754 23.3333 18.8494 22.35 20.5997 20.5997C22.35 18.8493 23.3334 16.4754 23.3334 14C23.3334 11.5247 22.35 9.15069 20.5997 7.40035C18.8494 5.65001 16.4754 4.66668 14 4.66668Z" fill="white"/>
</svg>
