<svg width="31" height="30" viewBox="0 0 31 30" fill="none" xmlns="http://www.w3.org/2000/svg">
<path d="M15.4062 0.9375C9.3125 0.9375 4.10938 4.875 2.1875 10.3125H28.7188C26.75 4.875 21.5469 0.9375 15.4062 0.9375Z" fill="#F2B200"/>
<path d="M15.4062 29.0625C21.5469 29.0625 26.75 25.1719 28.6719 19.6875H2.1875C4.10938 25.1719 9.3125 29.0625 15.4062 29.0625Z" fill="#83BF4F"/>
<path d="M2.1875 10.3125C1.67187 11.7656 1.39062 13.3594 1.39062 15C1.39062 16.6406 1.67187 18.2344 2.1875 19.6875H28.7188C29.2344 18.2344 29.5156 16.6406 29.5156 15C29.5156 13.3594 29.2344 11.7656 28.7188 10.3125H2.1875Z" fill="#EBEBEB"/>
<path d="M15.4062 18.75C17.4773 18.75 19.1562 17.0711 19.1562 15C19.1562 12.9289 17.4773 11.25 15.4062 11.25C13.3352 11.25 11.6562 12.9289 11.6562 15C11.6562 17.0711 13.3352 18.75 15.4062 18.75Z" fill="#428BC1"/>
<path d="M15.4062 18.2812C17.2184 18.2812 18.6875 16.8122 18.6875 15C18.6875 13.1878 17.2184 11.7188 15.4062 11.7188C13.5941 11.7188 12.125 13.1878 12.125 15C12.125 16.8122 13.5941 18.2812 15.4062 18.2812Z" fill="white"/>
<path d="M14.1875 12.1875C14.3169 12.1875 14.4219 12.0826 14.4219 11.9531C14.4219 11.8237 14.3169 11.7188 14.1875 11.7188C14.0581 11.7188 13.9531 11.8237 13.9531 11.9531C13.9531 12.0826 14.0581 12.1875 14.1875 12.1875Z" fill="#428BC1"/>
<path d="M13.4375 12.6094C13.5669 12.6094 13.6719 12.5044 13.6719 12.375C13.6719 12.2456 13.5669 12.1406 13.4375 12.1406C13.3081 12.1406 13.2031 12.2456 13.2031 12.375C13.2031 12.5044 13.3081 12.6094 13.4375 12.6094Z" fill="#428BC1"/>
<path d="M12.8281 13.2188C12.9576 13.2188 13.0625 13.1138 13.0625 12.9844C13.0625 12.8549 12.9576 12.75 12.8281 12.75C12.6987 12.75 12.5938 12.8549 12.5938 12.9844C12.5938 13.1138 12.6987 13.2188 12.8281 13.2188Z" fill="#428BC1"/>
<path d="M12.4062 13.9688C12.5357 13.9688 12.6406 13.8638 12.6406 13.7344C12.6406 13.6049 12.5357 13.5 12.4062 13.5C12.2768 13.5 12.1719 13.6049 12.1719 13.7344C12.1719 13.8638 12.2768 13.9688 12.4062 13.9688Z" fill="#428BC1"/>
<path d="M12.1719 14.8125C12.3013 14.8125 12.4062 14.7076 12.4062 14.5781C12.4062 14.4487 12.3013 14.3438 12.1719 14.3438C12.0424 14.3438 11.9375 14.4487 11.9375 14.5781C11.9375 14.7076 12.0424 14.8125 12.1719 14.8125Z" fill="#428BC1"/>
<path d="M12.1719 15.6562C12.3013 15.6562 12.4062 15.5513 12.4062 15.4219C12.4062 15.2924 12.3013 15.1875 12.1719 15.1875C12.0424 15.1875 11.9375 15.2924 11.9375 15.4219C11.9375 15.5513 12.0424 15.6562 12.1719 15.6562Z" fill="#428BC1"/>
<path d="M12.4062 16.5C12.5357 16.5 12.6406 16.3951 12.6406 16.2656C12.6406 16.1362 12.5357 16.0312 12.4062 16.0312C12.2768 16.0312 12.1719 16.1362 12.1719 16.2656C12.1719 16.3951 12.2768 16.5 12.4062 16.5Z" fill="#428BC1"/>
<path d="M12.8281 17.25C12.9576 17.25 13.0625 17.1451 13.0625 17.0156C13.0625 16.8862 12.9576 16.7812 12.8281 16.7812C12.6987 16.7812 12.5938 16.8862 12.5938 17.0156C12.5938 17.1451 12.6987 17.25 12.8281 17.25Z" fill="#428BC1"/>
<path d="M13.4375 17.8594C13.5669 17.8594 13.6719 17.7544 13.6719 17.625C13.6719 17.4956 13.5669 17.3906 13.4375 17.3906C13.3081 17.3906 13.2031 17.4956 13.2031 17.625C13.2031 17.7544 13.3081 17.8594 13.4375 17.8594Z" fill="#428BC1"/>
<path d="M14.1875 18.2812C14.3169 18.2812 14.4219 18.1763 14.4219 18.0469C14.4219 17.9174 14.3169 17.8125 14.1875 17.8125C14.0581 17.8125 13.9531 17.9174 13.9531 18.0469C13.9531 18.1763 14.0581 18.2812 14.1875 18.2812Z" fill="#428BC1"/>
<path d="M14.9844 18.4688C15.1138 18.4688 15.2188 18.3638 15.2188 18.2344C15.2188 18.1049 15.1138 18 14.9844 18C14.8549 18 14.75 18.1049 14.75 18.2344C14.75 18.3638 14.8549 18.4688 14.9844 18.4688Z" fill="#428BC1"/>
<path d="M15.6406 18.2812C15.6406 18.1406 15.7344 18.0469 15.8281 18C15.9688 18 16.0625 18.0937 16.1094 18.1875C16.1094 18.3281 16.0156 18.4219 15.9219 18.4688C15.7344 18.5156 15.6406 18.4219 15.6406 18.2812Z" fill="#428BC1"/>
<path d="M16.6719 18.2812C16.8013 18.2812 16.9062 18.1763 16.9062 18.0469C16.9062 17.9174 16.8013 17.8125 16.6719 17.8125C16.5424 17.8125 16.4375 17.9174 16.4375 18.0469C16.4375 18.1763 16.5424 18.2812 16.6719 18.2812Z" fill="#428BC1"/>
<path d="M17.4219 17.8594C17.5513 17.8594 17.6562 17.7544 17.6562 17.625C17.6562 17.4956 17.5513 17.3906 17.4219 17.3906C17.2924 17.3906 17.1875 17.4956 17.1875 17.625C17.1875 17.7544 17.2924 17.8594 17.4219 17.8594Z" fill="#428BC1"/>
<path d="M18.0312 17.25C18.1607 17.25 18.2656 17.1451 18.2656 17.0156C18.2656 16.8862 18.1607 16.7812 18.0312 16.7812C17.9018 16.7812 17.7969 16.8862 17.7969 17.0156C17.7969 17.1451 17.9018 17.25 18.0312 17.25Z" fill="#428BC1"/>
<path d="M18.4531 16.5C18.5826 16.5 18.6875 16.3951 18.6875 16.2656C18.6875 16.1362 18.5826 16.0312 18.4531 16.0312C18.3237 16.0312 18.2188 16.1362 18.2188 16.2656C18.2188 16.3951 18.3237 16.5 18.4531 16.5Z" fill="#428BC1"/>
<path d="M18.6875 15.6562C18.8169 15.6562 18.9219 15.5513 18.9219 15.4219C18.9219 15.2924 18.8169 15.1875 18.6875 15.1875C18.5581 15.1875 18.4531 15.2924 18.4531 15.4219C18.4531 15.5513 18.5581 15.6562 18.6875 15.6562Z" fill="#428BC1"/>
<path d="M18.6875 14.8125C18.5469 14.8125 18.4531 14.7188 18.4062 14.625C18.4062 14.4844 18.5 14.3906 18.5937 14.3438C18.7344 14.3438 18.8281 14.4375 18.875 14.5312C18.9219 14.6719 18.8281 14.7656 18.6875 14.8125Z" fill="#428BC1"/>
<path d="M18.4531 13.9688C18.5826 13.9688 18.6875 13.8638 18.6875 13.7344C18.6875 13.6049 18.5826 13.5 18.4531 13.5C18.3237 13.5 18.2188 13.6049 18.2188 13.7344C18.2188 13.8638 18.3237 13.9688 18.4531 13.9688Z" fill="#428BC1"/>
<path d="M18.0312 13.2188C18.1607 13.2188 18.2656 13.1138 18.2656 12.9844C18.2656 12.8549 18.1607 12.75 18.0312 12.75C17.9018 12.75 17.7969 12.8549 17.7969 12.9844C17.7969 13.1138 17.9018 13.2188 18.0312 13.2188Z" fill="#428BC1"/>
<path d="M17.4219 12.6094C17.5513 12.6094 17.6562 12.5044 17.6562 12.375C17.6562 12.2456 17.5513 12.1406 17.4219 12.1406C17.2924 12.1406 17.1875 12.2456 17.1875 12.375C17.1875 12.5044 17.2924 12.6094 17.4219 12.6094Z" fill="#428BC1"/>
<path d="M16.9063 12.0469C16.8594 12.1875 16.7188 12.2344 16.5781 12.1875C16.4375 12.1406 16.3906 12 16.4375 11.8594C16.4844 11.7187 16.625 11.6719 16.7656 11.7187C16.9063 11.8125 16.9531 11.9531 16.9063 12.0469ZM16.0625 11.7656C16.0625 11.9063 15.9219 12 15.7812 11.9531C15.6406 11.9531 15.5469 11.8125 15.5938 11.6719C15.5938 11.5312 15.7344 11.4375 15.875 11.4844C16.0156 11.5312 16.1094 11.6719 16.0625 11.7656ZM15.2188 11.7187C15.2188 11.8594 15.125 11.9531 15.0313 12C14.8906 12 14.7969 11.9063 14.75 11.8125C14.75 11.6719 14.8437 11.5781 14.9375 11.5313C15.0781 11.4844 15.2188 11.5781 15.2188 11.7187Z" fill="#428BC1"/>
<path d="M15.4062 15.7031C15.7946 15.7031 16.1094 15.3883 16.1094 15C16.1094 14.6117 15.7946 14.2969 15.4062 14.2969C15.0179 14.2969 14.7031 14.6117 14.7031 15C14.7031 15.3883 15.0179 15.7031 15.4062 15.7031Z" fill="#428BC1"/>
<path d="M15.4062 11.7188L15.3125 13.7344L15.4062 15L15.5469 13.7344L15.4062 11.7188ZM14.5625 11.8125L14.9844 13.8281L15.4062 15L15.2187 13.7344L14.5625 11.8125Z" fill="#428BC1"/>
<path d="M13.7656 12.1406L14.7031 13.9687L15.4062 15L14.8906 13.8281L13.7656 12.1406ZM13.1094 12.6563L14.4687 14.2031L15.4062 15L14.6094 14.0156L13.1094 12.6563Z" fill="#428BC1"/>
<path d="M12.5938 13.3594L14.2813 14.4844L15.4062 15L14.375 14.25L12.5938 13.3594Z" fill="#428BC1"/>
<path d="M12.2656 14.1562L14.1875 14.7656L15.4062 15L14.2344 14.5781L12.2656 14.1562ZM12.125 15L14.1875 15.0938L15.4062 15L14.1875 14.9062L12.125 15Z" fill="#428BC1"/>
<path d="M12.2656 15.8437L14.2344 15.4219L15.4062 15L14.1875 15.2344L12.2656 15.8437ZM12.5937 16.6406L14.375 15.75L15.4062 15L14.2812 15.5156L12.5937 16.6406Z" fill="#428BC1"/>
<path d="M13.1094 17.2969L14.6094 15.9844L15.4062 15L14.4687 15.7969L13.1094 17.2969ZM13.7656 17.8594L14.8906 16.125L15.4062 15L14.7031 16.0313L13.7656 17.8594Z" fill="#428BC1"/>
<path d="M14.5625 18.1875L15.2187 16.2656L15.4062 15L14.9844 16.1719L14.5625 18.1875ZM15.4062 18.2812L15.5469 16.2656L15.4062 15L15.3125 16.2656L15.4062 18.2812ZM16.25 18.1875L15.875 16.1719L15.4062 15L15.6406 16.2656L16.25 18.1875Z" fill="#428BC1"/>
<path d="M17.0469 17.8594L16.1563 16.0313L15.4062 15L15.9688 16.1719L17.0469 17.8594ZM17.75 17.2969L16.3906 15.7969L15.4062 15L16.25 15.9844L17.75 17.2969Z" fill="#428BC1"/>
<path d="M18.2656 16.6406L16.5781 15.5156L15.4062 15L16.4375 15.75L18.2656 16.6406ZM18.5937 15.8437L16.6719 15.2344L15.4062 15L16.625 15.4219L18.5937 15.8437ZM18.6875 15L16.6719 14.8594L15.4062 15L16.6719 15.0937L18.6875 15ZM18.5937 14.1562L16.625 14.5781L15.4062 15L16.6719 14.7656L18.5937 14.1562Z" fill="#428BC1"/>
<path d="M18.2656 13.3594L16.4375 14.25L15.4062 15L16.5781 14.4844L18.2656 13.3594ZM17.75 12.7031L16.25 14.0156L15.4062 15L16.3906 14.2031L17.75 12.7031Z" fill="#428BC1"/>
<path d="M17.0469 12.1406L15.9688 13.875L15.4062 15L16.1563 13.9687L17.0469 12.1406Z" fill="#428BC1"/>
<path d="M16.2969 11.8125L15.6406 13.7344L15.4062 15L15.875 13.8281L16.2969 11.8125Z" fill="#428BC1"/>
</svg>
