<svg width="28" height="28" viewBox="0 0 28 28" fill="none" xmlns="http://www.w3.org/2000/svg">
<path fill-rule="evenodd" clip-rule="evenodd" d="M15.1667 3.5C17.8286 4.04102 19.8334 6.5117 19.8334 9.33333V14C21.122 14 22.1667 15.0447 22.1667 16.3333V22.1667H16.3334V22.5C16.3334 23.6046 15.4379 24.5 14.3334 24.5H13.6667C12.5621 24.5 11.6667 23.6046 11.6667 22.5V22.1667H5.83337V16.3333C5.83337 15.0447 6.87804 14 8.16671 14V9.33333C8.16671 6.51129 10.1709 4.04057 12.8334 3.5H15.1667ZM14 5.83333C12.1361 5.83333 10.6124 7.29041 10.506 9.12768L10.5 9.33333V14.3333C10.5 15.4379 9.60461 16.3333 8.50004 16.3333H8.16671V19.8333H19.8334V16.3333H19.5C18.3955 16.3333 17.5 15.4379 17.5 14.3333V9.33333C17.5 7.40034 15.933 5.83333 14 5.83333Z" fill="white"/>
</svg>
