<svg width="30" height="30" viewBox="0 0 30 30" fill="none" xmlns="http://www.w3.org/2000/svg">
<path fill-rule="evenodd" clip-rule="evenodd" d="M11.1512 9.11625C11.3856 9.0334 11.6433 9.04705 11.8676 9.15417C12.092 9.2613 12.2646 9.45314 12.3475 9.6875C12.5413 10.2363 12.9006 10.7115 13.3757 11.0476C13.8509 11.3837 14.4186 11.5642 15.0006 11.5642C15.5826 11.5642 16.1503 11.3837 16.6255 11.0476C17.1007 10.7115 17.4599 10.2363 17.6537 9.6875C17.6933 9.56955 17.7559 9.46064 17.838 9.36714C17.92 9.27363 18.0199 9.19739 18.1317 9.14287C18.2435 9.08834 18.3651 9.05661 18.4893 9.04954C18.6135 9.04246 18.7379 9.06017 18.8551 9.10165C18.9724 9.14312 19.0803 9.20753 19.1724 9.29111C19.2646 9.37469 19.3392 9.47577 19.3919 9.58847C19.4446 9.70117 19.4743 9.82323 19.4793 9.94754C19.4844 10.0718 19.4646 10.1959 19.4212 10.3125C19.098 11.2267 18.4994 12.0182 17.7077 12.578C16.916 13.1378 15.9702 13.4384 15.0006 13.4384C14.031 13.4384 13.0852 13.1378 12.2935 12.578C11.5018 12.0182 10.9032 11.2267 10.58 10.3125C10.4971 10.0781 10.5108 9.82042 10.6179 9.59609C10.725 9.37176 10.9169 9.19916 11.1512 9.11625ZM15.4512 6.875H14.5487C12.5175 6.875 11.165 6.87875 10.14 7.005C9.16749 7.125 8.71874 7.33375 8.40374 7.595C8.08874 7.8575 7.80124 8.25875 7.50374 9.1925C7.19124 10.1762 6.93874 11.505 6.56374 13.5025C6.03874 16.3025 5.68624 18.2037 5.62374 19.6362C5.56374 21.0175 5.79499 21.605 6.11999 21.9963C6.44499 22.3875 6.97874 22.7225 8.34749 22.9175C9.76624 23.12 11.7012 23.125 14.55 23.125H15.45C18.3 23.125 20.2337 23.12 21.6525 22.9175C23.0212 22.7225 23.555 22.3875 23.88 21.9963C24.205 21.6038 24.4362 21.0175 24.3762 19.6362C24.3137 18.2037 23.9612 16.3025 23.4362 13.5025C23.0612 11.505 22.81 10.1775 22.4962 9.1925C22.1987 8.25875 21.9112 7.85625 21.5962 7.595C21.2812 7.33375 20.8337 7.125 19.86 7.005C18.835 6.87875 17.4825 6.875 15.4512 6.875ZM7.20624 6.1525C5.81874 7.305 5.45249 9.25625 4.72124 13.1575C3.69249 18.6438 3.17749 21.3862 4.67749 23.1938C6.17749 25 8.96749 25 14.55 25H15.45C21.0325 25 23.8237 25 25.3237 23.1938C26.8237 21.3862 26.3087 18.6437 25.28 13.1562C24.5487 9.25625 24.1825 7.305 22.7937 6.1525C21.4062 5 19.42 5 15.4512 5H14.5487C10.58 5 8.59499 5 7.20624 6.1525Z" fill="currentColor"/>
</svg>
