<svg width="25" height="25" viewBox="0 0 25 25" fill="none" xmlns="http://www.w3.org/2000/svg">
<g filter="url(#filter0_d_521_9)">
<path fill-rule="evenodd" clip-rule="evenodd" d="M11.5 0C15.6421 0 19 3.35786 19 7.5C19 9.21015 18.4276 10.7866 17.464 12.0483L20.7071 15.2929C21.0976 15.6834 21.0976 16.3166 20.7071 16.7071C20.3466 17.0676 19.7794 17.0953 19.3871 16.7903L19.2929 16.7071L16.0483 13.464C14.7866 14.4276 13.2101 15 11.5 15C7.35786 15 4 11.6421 4 7.5C4 3.35786 7.35786 0 11.5 0ZM11.5 2C8.46243 2 6 4.46243 6 7.5C6 10.5376 8.46243 13 11.5 13C12.8511 13 14.0885 12.5128 15.0459 11.7045C15.091 11.5536 15.1738 11.412 15.2929 11.2929C15.412 11.1738 15.5536 11.091 15.7041 11.0446C16.5128 10.0885 17 8.85114 17 7.5C17 4.46243 14.5376 2 11.5 2Z" fill="#7F8387"/>
</g>
<defs>
<filter id="filter0_d_521_9" x="0" y="0" width="25" height="25" filterUnits="userSpaceOnUse" color-interpolation-filters="sRGB">
<feFlood flood-opacity="0" result="BackgroundImageFix"/>
<feColorMatrix in="SourceAlpha" type="matrix" values="0 0 0 0 0 0 0 0 0 0 0 0 0 0 0 0 0 0 127 0" result="hardAlpha"/>
<feOffset dy="4"/>
<feGaussianBlur stdDeviation="2"/>
<feComposite in2="hardAlpha" operator="out"/>
<feColorMatrix type="matrix" values="0 0 0 0 0 0 0 0 0 0 0 0 0 0 0 0 0 0 0.25 0"/>
<feBlend mode="normal" in2="BackgroundImageFix" result="effect1_dropShadow_521_9"/>
<feBlend mode="normal" in="SourceGraphic" in2="effect1_dropShadow_521_9" result="shape"/>
</filter>
</defs>
</svg>
